# xmcd CD database file
#
# Track frame offsets:
#	150
#	13970
#	28292
#	43175
#	61250
#	73175
#	87317
#	104612
#	116497
#	133125
#	146770
#	160942
#
# Disc length: 2316 seconds
#
# Revision: 0
# Processed by: cddbd v1.4PL0 Copyright (c) Steve Scherf et al.
# Submitted via: CDex 1.50
#
DISCID=b7090a0c
DTITLE=Seleção Sertaneja - Sertão 87
DYEAR=1987
DGENRE=Country
TTITLE0=Encantos da Natureza
TTITLE1=Florzinha do Campo
TTITLE2=Tributo a um Amigo
TTITLE3=Menino da Porteira
TTITLE4=Curitibana
TTITLE5=Espinheira
TTITLE6=Massa Falida
TTITLE7=Drama da Vida
TTITLE8=Ladrão de Terra
TTITLE9=Anel de Noivado
TTITLE10=Canarinho Cantador
TTITLE11=Nascimento de Jesus
EXTD=YEAR: 1987
EXTT0=
EXTT1=
EXTT2=
EXTT3=
EXTT4=
EXTT5=
EXTT6=
EXTT7=
EXTT8=
EXTT9=
EXTT10=
EXTT11=
PLAYORDER=
